<svg viewBox="0 0 1440 886" fill="none" xmlns="http://www.w3.org/2000/svg">
<g clip-path="url(#clip0_1253_1133)">
<rect width="1440" height="885" transform="translate(0 0.816895)" fill="white" style="fill:white;fill-opacity:1;"/>
<path d="M92.9628 293.413C417.25 401.352 1117.16 638.904 1322.52 725.6" stroke="black" style="stroke:black;stroke-opacity:1;" stroke-width="278.309"/>
<path d="M82.01 618.837C426.732 647.232 1171.85 712.974 1394.56 748.783" stroke="black" style="stroke:black;stroke-opacity:1;" stroke-width="278.309"/>
<path d="M268.014 267.078C612.404 299.247 1356.76 373.147 1579.06 411.392" stroke="black" style="stroke:black;stroke-opacity:1;" stroke-width="278.309"/>
<path d="M318.191 257.087C657.703 190.975 1392.75 52.2777 1616.82 26.3769" stroke="black" style="stroke:black;stroke-opacity:1;" stroke-width="278.309"/>
<path d="M-104.63 28.1144C238.985 67.7115 981.571 157.665 1202.99 200.7" stroke="black" style="stroke:black;stroke-opacity:1;" stroke-width="402"/>
<path d="M244.958 726.115L183.191 787.259" stroke="white" style="stroke:white;stroke-opacity:1;" stroke-width="35.5872" stroke-miterlimit="10" stroke-linecap="square" stroke-linejoin="round"/>
<path d="M244.958 787.259L183.191 726.115" stroke="white" style="stroke:white;stroke-opacity:1;" stroke-width="35.5872" stroke-miterlimit="10" stroke-linecap="square" stroke-linejoin="round"/>
<path d="M1256.7 750.813C1256.7 764.553 1245.52 775.727 1231.78 775.727C1218.04 775.727 1206.87 764.553 1206.87 750.813C1206.87 737.074 1218.04 725.899 1231.78 725.899C1245.52 725.899 1256.7 737.074 1256.7 750.813Z" fill="white" stroke="white" style="fill:white;fill-opacity:1;stroke:white;stroke-opacity:1;" stroke-width="20.3226" stroke-miterlimit="10"/>
<path d="M179.316 218.933C177.976 217.812 176.63 216.963 175.017 215.836C150.193 201.27 125.222 186.884 100.654 171.883C98.7689 170.749 96.8712 170.162 95.2343 170.125C94.9615 170.119 94.6887 170.113 94.143 170.101C88.3957 170.793 84.7586 174.807 84.6318 180.536L83.6782 223.641C83.3584 238.101 83.0385 252.56 82.7246 266.747C82.5858 273.022 86.8483 277.756 92.5775 277.883C94.4873 277.925 96.4091 277.422 98.3429 276.373C109.946 270.079 121.822 263.79 133.419 257.769L133.698 257.502L134.529 256.975C146.126 250.953 157.729 244.659 169.054 238.632C169.605 238.371 170.436 237.844 170.988 237.583C172.921 236.534 175.128 235.491 176.795 234.163C179.566 232.313 181.263 229.621 181.608 226.354C181.892 223.67 181.456 220.891 179.316 218.933ZM120.401 241.65C120.401 241.65 117.364 243.22 105.767 249.242C105.767 249.242 105.215 249.502 104.942 249.496C104.67 249.49 104.67 249.49 104.397 249.484C103.857 249.199 103.881 248.108 103.887 247.835L104.394 224.919C104.473 221.372 104.588 216.188 104.696 211.278C104.805 206.367 104.919 201.183 104.925 200.91C104.932 200.638 105.131 200.273 105.489 200.104C105.668 200.019 105.753 199.978 106.026 199.984C106.298 199.99 106.581 200.128 106.581 200.128L127.874 212.336L137.574 218.01L149.167 224.544C149.167 224.544 150.242 225.174 150.229 225.719C150.217 226.265 149.561 226.781 149.113 227C139.455 231.699 120.401 241.65 120.401 241.65Z" fill="white" style="fill:white;fill-opacity:1;"/>
</g>
<defs>
<clipPath id="clip0_1253_1133">
<rect width="1440" height="885" fill="white" style="fill:white;fill-opacity:1;" transform="translate(0 0.816895)"/>
</clipPath>
</defs>
</svg>
