<svg width="1440" height="140" viewBox="0 0 1440 140" fill="none" xmlns="http://www.w3.org/2000/svg">
<g clip-path="url(#clip0_1253_2183)">
<path d="M1324.55 93.0195L1324.55 -0.269531L1231.93 -0.269535L1231.93 93.0195L1324.55 93.0195Z" fill="black" style="fill:black;fill-opacity:1;"/>
<path d="M1417.16 93.0195L1417.16 -0.269531L1324.55 -0.269535L1324.55 93.0195L1417.16 93.0195Z" fill="black" style="fill:black;fill-opacity:1;"/>
<path d="M1417.16 186.301L1417.16 93.0117L1324.55 93.0117L1324.55 186.301L1417.16 186.301Z" fill="black" style="fill:black;fill-opacity:1;"/>
<path d="M1509.78 93.0213L1509.78 -411.533L1417.16 -411.533L1417.16 93.0213L1509.78 93.0213Z" fill="black" style="fill:black;fill-opacity:1;"/>
<path d="M1324.55 139.625L1324.55 93.0176L1278.24 93.0176L1278.24 139.625L1324.55 139.625Z" fill="black" style="fill:black;fill-opacity:1;"/>
<path d="M865.281 93.0175L865.281 -0.271484L772.664 -0.271488L772.664 93.0175L865.281 93.0175Z" fill="black" style="fill:black;fill-opacity:1;"/>
<path d="M957.898 93.0175L957.898 -0.271484L865.282 -0.271488L865.282 93.0175L957.898 93.0175Z" fill="black" style="fill:black;fill-opacity:1;"/>
<path d="M957.898 186.299L957.898 93.0098L865.282 93.0098L865.282 186.299L957.898 186.299Z" fill="black" style="fill:black;fill-opacity:1;"/>
<path d="M1050.52 93.0193L1050.52 -411.535L957.899 -411.535L957.899 93.0193L1050.52 93.0193Z" fill="black" style="fill:black;fill-opacity:1;"/>
<path d="M1146.5 46.3357L1146.5 -0.271484L1100.19 -0.271486L1100.19 46.3357L1146.5 46.3357Z" fill="black" style="fill:black;fill-opacity:1;"/>
<path d="M865.281 139.623L865.281 93.0156L818.973 93.0156L818.973 139.623L865.281 139.623Z" fill="black" style="fill:black;fill-opacity:1;"/>
<path d="M1280.2 93.0076L1280.2 46.4004L1233.89 46.4004L1233.89 93.0076L1280.2 93.0076Z" fill="black" style="fill:black;fill-opacity:1;"/>
<path d="M1233.82 139.617L1233.82 93.0098L1187.51 93.0098L1187.51 139.617L1233.82 139.617Z" fill="black" style="fill:black;fill-opacity:1;"/>
<path d="M1233.81 93.0175L1233.81 -0.271484L1141.2 -0.271488L1141.2 93.0175L1233.81 93.0175Z" fill="black" style="fill:black;fill-opacity:1;"/>
<path d="M689.629 93.0195L689.629 -0.269531L782.246 -0.269519L782.246 93.0195L689.629 93.0195Z" fill="black" style="fill:black;fill-opacity:1;"/>
<path d="M597.008 93.0195L597.008 -0.269531L689.625 -0.269519L689.625 93.0195L597.008 93.0195Z" fill="black" style="fill:black;fill-opacity:1;"/>
<path d="M597.008 186.301L597.008 93.0117L689.625 93.0117L689.625 186.301L597.008 186.301Z" fill="black" style="fill:black;fill-opacity:1;"/>
<path d="M504.391 93.0213L504.391 -411.533L597.008 -411.533L597.007 93.0213L504.391 93.0213Z" fill="black" style="fill:black;fill-opacity:1;"/>
<path d="M408.406 46.3376L408.406 -0.269531L454.715 -0.269525L454.715 46.3376L408.406 46.3376Z" fill="black" style="fill:black;fill-opacity:1;"/>
<path d="M689.625 139.625L689.625 93.0176L735.933 93.0176L735.933 139.625L689.625 139.625Z" fill="black" style="fill:black;fill-opacity:1;"/>
<path d="M276.719 93.0115L276.719 46.4043L323.027 46.4043L323.027 93.0115L276.719 93.0115Z" fill="black" style="fill:black;fill-opacity:1;"/>
<path d="M321.094 139.619L321.094 93.0117L367.402 93.0117L367.402 139.619L321.094 139.619Z" fill="black" style="fill:black;fill-opacity:1;"/>
<path d="M321.094 93.0195L321.094 -0.269531L413.711 -0.269519L413.711 93.0195L321.094 93.0195Z" fill="black" style="fill:black;fill-opacity:1;"/>
<path d="M116.922 93.0175L116.922 -0.271484L209.539 -0.271472L209.539 93.0176L116.922 93.0175Z" fill="black" style="fill:black;fill-opacity:1;"/>
<path d="M24.3008 93.0175L24.3008 -0.271484L116.918 -0.271472L116.918 93.0176L24.3008 93.0175Z" fill="black" style="fill:black;fill-opacity:1;"/>
<path d="M24.3008 186.299L24.3008 93.0098L116.918 93.0098L116.918 186.299L24.3008 186.299Z" fill="black" style="fill:black;fill-opacity:1;"/>
<path d="M-68.3165 93.0193L-68.3164 -411.535L24.3004 -411.535L24.3003 93.0193L-68.3165 93.0193Z" fill="black" style="fill:black;fill-opacity:1;"/>
<path d="M116.918 139.623L116.918 93.0156L163.226 93.0156L163.226 139.623L116.918 139.623Z" fill="black" style="fill:black;fill-opacity:1;"/>
</g>
<defs>
<clipPath id="clip0_1253_2183">
<rect width="1447" height="140" fill="white" style="fill:white;fill-opacity:1;" transform="translate(1441 140) rotate(-180)"/>
</clipPath>
</defs>
</svg>
